<svg width="46.922852" height="48.000000" viewBox="0 0 46.9229 48" fill="none" xmlns="http://www.w3.org/2000/svg" xmlns:xlink="http://www.w3.org/1999/xlink">
	<desc>
			Created with Pixso.
	</desc>
	<defs>
		<clipPath id="clip3_4354">
			<rect id="Component 90" rx="22.961657" width="45.923313" height="47.000015" transform="translate(0.500000 0.500000)" fill="white" fill-opacity="0"/>
		</clipPath>
	</defs>
	<g clip-path="url(#clip3_4354)">
		<path id="Vector" d="M25.02 16.17C24.74 16.17 24.5 15.95 24.5 15.67L24.5 14C24.5 13.44 24.03 13 23.46 13C22.88 13 22.41 13.44 22.41 14L22.41 15.67C22.41 15.95 22.17 16.17 21.89 16.17C21.6 16.17 21.36 15.95 21.36 15.67L21.36 14C21.36 12.89 22.3 12 23.46 12C24.61 12 25.55 12.89 25.55 14L25.55 15.67C25.55 15.95 25.31 16.17 25.02 16.17Z" fill="#1E1E1E" fill-opacity="1.000000" fill-rule="evenodd"/>
		<path id="Vector" d="M23.46 36C21.44 36 19.79 34.42 19.79 32.5C19.79 32.22 20.03 32 20.32 32C20.61 32 20.84 32.22 20.84 32.5C20.84 33.87 22.01 35 23.46 35C24.9 35 26.07 33.87 26.07 32.5C26.07 32.22 26.31 32 26.59 32C26.88 32 27.12 32.22 27.12 32.5C27.12 34.42 25.47 36 23.46 36Z" fill="#1E1E1E" fill-opacity="1.000000" fill-rule="evenodd"/>
		<path id="Vector" d="M32.35 33L14.56 33C13.7 33 13 32.32 13 31.5C13 31.06 13.2 30.64 13.54 30.36C15.19 29.02 16.13 27.09 16.13 25.03L16.13 22C16.13 18.14 19.42 15 23.46 15C27.5 15 30.78 18.14 30.78 22L30.78 25.03C30.78 27.09 31.72 29.02 33.36 30.35C33.72 30.64 33.92 31.06 33.92 31.5C33.92 32.32 33.22 33 32.35 33ZM23.46 16C20 16 17.18 18.69 17.18 22L17.18 25.03C17.18 27.38 16.1 29.6 14.23 31.11C14.11 31.21 14.04 31.35 14.04 31.5C14.04 31.77 14.28 32 14.56 32L32.35 32C32.64 32 32.87 31.77 32.87 31.5C32.87 31.35 32.81 31.21 32.69 31.12C30.81 29.6 29.73 27.38 29.73 25.03L29.73 22C29.73 18.69 26.92 16 23.46 16Z" fill="#1E1E1E" fill-opacity="1.000000" fill-rule="evenodd"/>
	</g>
	<rect id="Component 90" rx="22.961657" width="45.923313" height="47.000015" transform="translate(0.500000 0.500000)" stroke="#1E1E1E" stroke-opacity="1.000000" stroke-width="1.000000"/>
</svg>
